<?xml version="1.0" standalone="no"?>
<!DOCTYPE svg PUBLIC "-//W3C//DTD SVG 20010904//EN"
 "http://www.w3.org/TR/2001/REC-SVG-20010904/DTD/svg10.dtd">
<svg version="1.0" xmlns="http://www.w3.org/2000/svg"
 width="1024.000000pt" height="1024.000000pt" viewBox="0 0 1024.000000 1024.000000"
 preserveAspectRatio="xMidYMid meet">
<metadata>
Created by potrace 1.14, written by Peter Selinger 2001-2017
</metadata>
<g transform="translate(0.000000,1024.000000) scale(0.100000,-0.100000)"
fill="#000000" stroke="none">
<path d="M1139 10216 c-2 -2 -29 -7 -59 -10 -72 -9 -202 -43 -267 -72 -28 -12
-53 -20 -56 -18 -2 3 -10 -2 -17 -11 -7 -8 -18 -15 -24 -15 -7 0 -43 -19 -82
-41 -246 -148 -430 -364 -529 -624 -43 -115 -54 -154 -75 -295 -11 -69 -7
-8062 3 -8110 23 -99 40 -162 64 -225 126 -342 394 -609 738 -738 163 -61
-185 -57 4300 -57 4095 0 4101 0 4175 20 85 24 208 68 230 84 8 6 37 22 65 36
27 14 54 28 60 32 160 117 240 192 327 308 121 162 213 382 235 563 10 79 11
8045 1 8112 -10 64 -13 81 -29 135 -7 25 -14 51 -15 59 -16 82 -145 324 -220
410 -57 65 -176 180 -215 206 -24 17 -53 38 -64 48 -32 29 -234 124 -325 152
-180 56 66 53 -4236 54 -2189 0 -3983 -1 -3985 -3z"/>
</g>
</svg>
