<?xml version="1.0" standalone="no"?>
<!DOCTYPE svg PUBLIC "-//W3C//DTD SVG 20010904//EN"
 "http://www.w3.org/TR/2001/REC-SVG-20010904/DTD/svg10.dtd">
<svg version="1.0" xmlns="http://www.w3.org/2000/svg"
 width="1024.000000pt" height="1024.000000pt" viewBox="0 0 1024.000000 1024.000000"
 preserveAspectRatio="xMidYMid meet">
<metadata>
Created by potrace 1.14, written by Peter Selinger 2001-2017
</metadata>
<g transform="translate(0.000000,1024.000000) scale(0.100000,-0.100000)"
fill="#000000" stroke="none">
<path d="M3794 7415 c-91 -16 -134 -30 -209 -68 -218 -109 -367 -291 -421
-517 -17 -70 -18 -178 -22 -1730 -3 -1671 -1 -1769 32 -1881 40 -131 110 -243
214 -341 78 -74 131 -108 230 -148 137 -55 100 -54 1517 -55 l1310 0 80 22
c126 36 239 97 324 178 111 105 166 192 217 345 l29 85 0 1740 c0 1651 -1
1743 -18 1805 -75 268 -283 476 -552 552 l-80 23 -1290 2 c-1025 1 -1305 -1
-1361 -12z m2598 -487 c110 -51 171 -118 207 -226 74 -220 -49 -463 -264 -521
-28 -7 -404 -11 -1215 -11 -1020 -1 -1182 1 -1225 14 -208 63 -318 299 -246
528 36 112 142 210 258 237 22 5 558 8 1233 8 l1195 -2 57 -27z m-2294 -1189
c228 -110 226 -437 -2 -557 -44 -23 -64 -27 -136 -27 -73 0 -93 4 -142 28 -62
30 -115 83 -150 149 -32 60 -33 192 -2 259 78 168 260 231 432 148z m1064 30
c70 -14 127 -48 176 -104 102 -116 96 -306 -13 -417 -182 -185 -494 -89 -537
164 -28 160 71 311 231 354 59 16 78 16 143 3z m1223 -18 c62 -28 130 -94 162
-160 37 -73 39 -181 6 -253 -27 -60 -95 -127 -158 -159 -71 -34 -206 -35 -282
0 -145 65 -220 244 -164 392 24 62 75 127 124 158 85 52 222 62 312 22z
m-2304 -1018 c66 -29 121 -83 154 -150 24 -48 29 -71 29 -133 1 -97 -27 -161
-98 -228 -68 -65 -131 -86 -236 -80 -67 4 -87 10 -133 38 -97 58 -157 160
-157 264 0 147 80 256 223 302 56 19 161 12 218 -13z m1142 -1 c187 -83 244
-320 118 -480 -54 -68 -131 -106 -228 -110 -94 -5 -158 16 -222 74 -73 66
-106 139 -106 234 1 145 78 250 220 297 53 17 162 10 218 -15z m1147 6 c87
-30 176 -116 211 -203 23 -60 23 -63 24 -455 0 -217 -2 -467 -5 -555 -5 -144
-8 -165 -30 -210 -32 -64 -101 -133 -165 -165 -44 -22 -63 -25 -155 -25 -91 0
-112 3 -155 24 -69 35 -131 100 -168 179 l-32 67 0 550 0 550 26 55 c32 67 68
112 123 149 91 63 215 77 326 39z m-2288 -1025 c65 -29 132 -94 159 -156 32
-70 33 -191 2 -259 -24 -53 -89 -120 -148 -151 -59 -32 -211 -32 -276 1 -254
125 -231 491 36 579 56 18 169 11 227 -14z m1152 -7 c60 -29 113 -83 148 -148
33 -63 33 -193 -1 -262 -29 -60 -85 -117 -143 -148 -60 -32 -211 -33 -278 -2
-137 64 -211 233 -165 379 20 62 86 145 139 172 97 51 208 54 300 9z"/>
</g>
</svg>
